<mxfile host="app.diagrams.net" modified="2024-05-10T03:51:29.926Z" agent="Mozilla/5.0 (Macintosh; Intel Mac OS X 10_15_7) AppleWebKit/537.36 (KHTML, like Gecko) Chrome/124.0.0.0 Safari/537.36 Edg/124.0.0.0" version="24.3.0" etag="F0Ll_jyp2OSzMps-hUZA" type="github">
  <diagram name="第 1 页" id="W__i5SvG5m0rLPJonbVb">
    <mxGraphModel>
      <root>
        <mxCell id="0" />
        <mxCell id="1" parent="0" />
      </root>
    </mxGraphModel>
  </diagram>
</mxfile>
